<?xml version="1.0" encoding="utf-8"?>
<!-- Generator: Adobe Illustrator 21.1.0, SVG Export Plug-In . SVG Version: 6.00 Build 0)  -->
<svg version="1.1" id="Layer_1" xmlns="http://www.w3.org/2000/svg" xmlns:xlink="http://www.w3.org/1999/xlink" x="0px" y="0px"
	 viewBox="0 0 24 24" style="enable-background:new 0 0 24 24;" xml:space="preserve">
<style type="text/css">
	.addaphoto_st0{fill:#FFFFFF;}
	.addaphoto_st1{fill:#474747;}
</style>
<rect class="addaphoto_st0" width="24" height="24"/>
<g>
	<polygon class="addaphoto_st1" points="3.5,9.5 5.5,9.5 5.5,6.5 8.5,6.5 8.5,4.5 5.5,4.5 5.5,1.5 3.5,1.5 3.5,4.5 0.5,4.5 0.5,6.5 3.5,6.5 	
		"/>
	<path class="addaphoto_st1" d="M21.5,6.5h-3.2l-1.8-2h-7v3h-3v3h-3v10c0,1.1,0.9,2,2,2h16c1.1,0,2-0.9,2-2v-12C23.5,7.4,22.6,6.5,21.5,6.5z
		 M13.5,19.5c-2.8,0-5-2.2-5-5s2.2-5,5-5s5,2.2,5,5S16.3,19.5,13.5,19.5z"/>
	<circle class="addaphoto_st1" cx="13.5" cy="14.5" r="3.2"/>
</g>
</svg>
